<svg width="29" height="37" viewBox="0 0 29 37" fill="none" xmlns="http://www.w3.org/2000/svg">
<path d="M27.26 22.6354L21.6207 11.4628V7.46053L23.7947 0H17.7258C16.4435 0 15.2904 0.562813 14.5002 1.45459C13.71 0.562813 12.5568 0 11.2745 0H5.20561L7.37961 7.46075V11.4629L1.7402 22.6354C0.17895 25.7285 0.330999 29.3368 2.14692 32.2876C3.96291 35.2383 7.11562 37 10.5804 37H18.4198C21.8846 37 25.0373 35.2383 26.8533 32.2876C28.6692 29.3368 28.8213 25.7285 27.26 22.6354ZM11.2745 2.168C12.4554 2.168 13.4162 3.12879 13.4162 4.3097H15.5842C15.5842 3.12879 16.5449 2.168 17.7258 2.168H20.9048L19.7235 6.22173L9.27683 6.22188L8.09555 2.168H11.2745ZM19.4527 8.38974V10.6369H9.54754V8.38995L19.4527 8.38974ZM25.0069 31.1513C23.5885 33.4561 21.1261 34.8321 18.4199 34.8321H10.5804C7.87413 34.8321 5.41171 33.4561 3.99333 31.1513C2.57495 28.8465 2.45615 26.0282 3.67565 23.6123L9.1307 12.8049H19.8697L25.3247 23.6123C26.5441 26.0282 26.4253 28.8465 25.0069 31.1513Z" fill="#ECD891"/>
<path d="M15.9466 22.2729H13.6214C13.098 22.2729 12.6722 21.847 12.6722 21.3236C12.6722 20.8001 13.098 20.3743 13.6214 20.3743H17.5472V18.2063H15.5832V16.7437H13.4152V18.2138C11.7922 18.3204 10.5042 19.6741 10.5042 21.3236C10.5042 23.0424 11.9026 24.4409 13.6214 24.4409H15.9466C16.5154 24.4409 16.9782 24.9036 16.9782 25.4724C16.9782 26.0412 16.5154 26.5039 15.9466 26.5039H10.9362V28.6719H13.4153V30.1345H15.5833V28.6719H15.9466C17.7109 28.6719 19.1462 27.2366 19.1462 25.4724C19.1462 23.7081 17.7109 22.2729 15.9466 22.2729Z" fill="#ECD891"/>
</svg>
