<svg width="49" height="43" viewBox="0 0 49 43" fill="none" xmlns="http://www.w3.org/2000/svg">
<g filter="url(#filter0_d)">
<path d="M37.5801 22.3782H33.9583C33.4653 22.3782 32.9881 22.4456 32.5339 22.5694C31.638 20.8082 29.8088 19.598 27.701 19.598H21.299C19.1912 19.598 17.362 20.8082 16.4661 22.5694C16.0119 22.4456 15.5347 22.3782 15.0417 22.3782H11.4199C8.43138 22.3782 6 24.8096 6 27.7982V33.5879C6 35.3811 7.45883 36.8399 9.25195 36.8399H39.748C41.5412 36.8399 43 35.3811 43 33.5879V27.7982C43 24.8096 40.5686 22.3782 37.5801 22.3782ZM15.8791 25.0181V34.672H9.25195C8.65424 34.672 8.16797 34.1857 8.16797 33.588V27.7982C8.16797 26.0051 9.62679 24.5463 11.4199 24.5463H15.0417C15.336 24.5463 15.6209 24.5862 15.8922 24.6599C15.8844 24.7785 15.8791 24.8977 15.8791 25.0181ZM30.953 34.672H18.047V25.018C18.047 23.2249 19.5059 21.7661 21.299 21.7661H27.701C29.4941 21.7661 30.953 23.2249 30.953 25.018V34.672ZM40.832 33.588C40.832 34.1857 40.3458 34.672 39.748 34.672H33.1209V25.018C33.1209 24.8976 33.1156 24.7783 33.1078 24.6598C33.3791 24.5862 33.664 24.5462 33.9583 24.5462H37.5801C39.3732 24.5462 40.832 26.005 40.832 27.7982V33.588Z" fill="#D64D4E"/>
<path d="M13.2309 12.142C10.5752 12.142 8.41467 14.3025 8.41467 16.9582C8.4146 19.6139 10.5752 21.7744 13.2309 21.7744C15.8865 21.7744 18.0471 19.6139 18.0471 16.9582C18.0471 14.3025 15.8866 12.142 13.2309 12.142ZM13.2308 19.6064C11.7705 19.6064 10.5826 18.4185 10.5826 16.9582C10.5826 15.4979 11.7705 14.3099 13.2308 14.3099C14.6911 14.3099 15.8791 15.4979 15.8791 16.9582C15.8791 18.4185 14.6911 19.6064 13.2308 19.6064Z" fill="#D64D4E"/>
<path d="M24.5001 6.16016C20.9521 6.16016 18.0657 9.04659 18.0657 12.5945C18.0657 16.1425 20.9521 19.0289 24.5001 19.0289C28.048 19.0289 30.9344 16.1425 30.9344 12.5945C30.9344 9.04666 28.048 6.16016 24.5001 6.16016ZM24.5001 16.861C22.1475 16.861 20.2336 14.9471 20.2336 12.5945C20.2336 10.2421 22.1475 8.32812 24.5001 8.32812C26.8526 8.32812 28.7665 10.242 28.7665 12.5945C28.7665 14.9471 26.8526 16.861 24.5001 16.861Z" fill="#D64D4E"/>
<path d="M35.7691 12.142C33.1135 12.142 30.9529 14.3025 30.9529 16.9582C30.953 19.6139 33.1135 21.7744 35.7691 21.7744C38.4248 21.7744 40.5853 19.6139 40.5853 16.9582C40.5853 14.3025 38.4248 12.142 35.7691 12.142ZM35.7691 19.6064C34.3089 19.6064 33.1208 18.4185 33.1208 16.9582C33.1209 15.4979 34.3089 14.3099 35.7691 14.3099C37.2294 14.3099 38.4173 15.4979 38.4173 16.9582C38.4173 18.4185 37.2294 19.6064 35.7691 19.6064Z" fill="#D64D4E"/>
</g>
<defs>
<filter id="filter0_d" x="0" y="-3" width="49" height="49" filterUnits="userSpaceOnUse" color-interpolation-filters="sRGB">
<feFlood flood-opacity="0" result="BackgroundImageFix"/>
<feColorMatrix in="SourceAlpha" type="matrix" values="0 0 0 0 0 0 0 0 0 0 0 0 0 0 0 0 0 0 127 0"/>
<feOffset/>
<feGaussianBlur stdDeviation="3"/>
<feColorMatrix type="matrix" values="0 0 0 0 0.729412 0 0 0 0 0.168627 0 0 0 0 0.172549 0 0 0 0.71 0"/>
<feBlend mode="normal" in2="BackgroundImageFix" result="effect1_dropShadow"/>
<feBlend mode="normal" in="SourceGraphic" in2="effect1_dropShadow" result="shape"/>
</filter>
</defs>
</svg>
